<svg xmlns="http://www.w3.org/2000/svg" viewBox="0 0 130 44" width="130" height="44">
  <g transform="translate(4, 4) scale(0.95)">
    <path fill="#0ACF83" d="M12 36a6 6 0 1 1-6-6h6v6z" transform="translate(0, -12)"/>
    <path fill="#1ABCFE" d="M24 24a6 6 0 0 1-6 6V18h6a6 6 0 0 1 0 6z" transform="translate(0, 0)"/>
    <path fill="#A259FF" d="M12 24a6 6 0 0 1-6-6 6 6 0 0 1 6-6v12z" transform="translate(0, 0)"/>
    <path fill="#F24E1E" d="M12 12a6 6 0 0 1-6-6 6 6 0 0 1 6-6v12z" transform="translate(0, -12)"/>
    <path fill="#FF7262" d="M24 12a6 6 0 0 1-6 6V0h6a6 6 0 0 1 0 12z" transform="translate(0, -12)"/>
  </g>
  <text x="40" y="29" font-family="'Inter', -apple-system, BlinkMacSystemFont, 'Segoe UI', Roboto, sans-serif" font-size="24" font-weight="700" fill="#FFFFFF" letter-spacing="-0.5">Figma</text>
</svg>