<svg xmlns="http://www.w3.org/2000/svg" viewBox="0 0 48 48" width="48" height="48">
  <defs>
    <linearGradient id="wd1" x1="0%" y1="0%" x2="100%" y2="100%">
      <stop offset="0%" stop-color="#185ABD"/>
      <stop offset="100%" stop-color="#0F4494"/>
    </linearGradient>
    <linearGradient id="wd2" x1="0%" y1="0%" x2="100%" y2="100%">
      <stop offset="0%" stop-color="#2B78E4"/>
      <stop offset="100%" stop-color="#185ABD"/>
    </linearGradient>
    <filter id="wdShadow" x="-20%" y="-20%" width="140%" height="140%">
      <feDropShadow dx="1" dy="2" stdDeviation="2" flood-color="#000" flood-opacity="0.4"/>
    </filter>
  </defs>
  <!-- Background Document Panel -->
  <rect x="14" y="6" width="28" height="36" rx="4" fill="url(#wd2)"/>
  <!-- Document Lines -->
  <rect x="22" y="14" width="14" height="2.5" rx="1.2" fill="#FFFFFF" opacity="0.7"/>
  <rect x="22" y="20" width="14" height="2.5" rx="1.2" fill="#FFFFFF" opacity="0.7"/>
  <rect x="22" y="26" width="14" height="2.5" rx="1.2" fill="#FFFFFF" opacity="0.7"/>
  <rect x="22" y="32" width="10" height="2.5" rx="1.2" fill="#FFFFFF" opacity="0.7"/>
  <!-- Word Blue Front Badge -->
  <rect x="6" y="11" width="22" height="26" rx="3.5" fill="url(#wd1)" filter="url(#wdShadow)"/>
  <!-- W Symbol -->
  <path d="M11 18 L13 29 L15.5 29 L17 21 L18.5 29 L21 29 L23 18 L20.5 18 L19.2 25 L17.8 18 L16.2 18 L14.8 25 L13.5 18 Z" fill="#FFFFFF"/>
</svg>